<?xml version="1.0" encoding="UTF-8"?>
<svg xmlns="http://www.w3.org/2000/svg" width="323" height="187" viewBox="0 0 323 187" fill="none">
  <path d="M114.036 133.512V109.392C114.036 108.611 114.326 107.941 114.898 107.398C115.469 106.846 116.173 106.578 116.994 106.578H119.877V133.512H114.036Z" fill="#595A5C"></path>
  <path d="M141.928 133.82H139.136C138.342 133.82 137.684 133.571 137.187 133.064C136.682 132.557 136.433 131.906 136.433 131.11V120.243C136.433 118.964 136.048 118.031 135.278 117.443C134.508 116.856 133.642 116.567 132.687 116.567C131.733 116.567 130.882 116.856 130.136 117.443C129.39 118.031 129.021 118.964 129.021 120.243V133.828H123.447V121.361C123.447 117.741 124.393 115.312 126.278 114.089C128.163 112.867 130.249 112.199 132.535 112.094C134.869 112.094 137.027 112.706 138.992 113.936C140.957 115.159 141.944 117.636 141.944 121.369V133.836L141.928 133.82Z" fill="#595A5C"></path>
  <path d="M155.232 133.774C153.478 133.877 151.588 133.853 149.546 133.694C147.504 133.535 146.487 132.246 146.487 129.819V106.578H149.354C150.043 106.578 150.651 106.84 151.188 107.365C151.716 107.891 151.981 108.527 151.981 109.267V112.824H155.24V113.93C155.24 114.718 154.976 115.37 154.448 115.863C153.919 116.365 153.278 116.611 152.541 116.611H151.981V128.308C151.981 129.199 152.509 129.652 153.575 129.652H155.248V133.766L155.232 133.774Z" fill="#595A5C"></path>
  <path d="M173.344 127.225H177.32C176.736 129.454 175.624 131.154 173.984 132.325C172.344 133.543 170.272 134.161 167.784 134.161C164.769 134.161 162.409 133.175 160.713 131.21C159.017 129.302 158.169 126.568 158.169 123.007C158.169 119.447 158.993 116.953 160.633 115.045C162.329 113.081 164.689 112.094 167.704 112.094C170.88 112.094 173.344 113.049 175.096 114.965C176.792 116.929 177.64 119.664 177.64 123.168V124.042C177.64 124.306 177.616 124.491 177.56 124.603H163.809C163.865 126.247 164.257 127.474 165.001 128.267C165.688 129.117 166.72 129.542 168.104 129.542C169 129.542 169.776 129.358 170.408 128.981C170.568 128.925 170.712 128.837 170.848 128.7C170.976 128.564 171.128 128.42 171.288 128.259C171.344 128.099 171.544 127.891 171.88 127.626C172.224 127.361 172.712 127.225 173.352 127.225M163.817 121.011H171.92C171.816 119.575 171.44 118.517 170.808 117.827C170.12 117.082 169.136 116.713 167.864 116.713C166.696 116.713 165.744 117.082 165.001 117.827C164.257 118.573 163.865 119.632 163.809 121.011" fill="#595A5C"></path>
  <path d="M181.858 106.578H184.7C185.438 106.578 186.065 106.822 186.589 107.319C187.113 107.815 187.375 108.43 187.375 109.155V133.512H181.858V106.578Z" fill="#595A5C"></path>
  <path d="M191.593 106.578H194.435C195.173 106.578 195.8 106.822 196.324 107.319C196.848 107.815 197.11 108.43 197.11 109.155V133.512H191.593V106.578Z" fill="#595A5C"></path>
  <path d="M201.653 106.578H204.495C205.233 106.578 205.86 106.841 206.384 107.367C206.908 107.894 207.17 108.532 207.17 109.273V110.94H201.653V106.586V106.578ZM201.653 112.758H204.495C205.233 112.758 205.86 113.022 206.384 113.548C206.908 114.074 207.17 114.712 207.17 115.454V133.836H201.653V112.758Z" fill="#595A5C"></path>
  <path d="M224.512 132.428V131.076C223.563 132.563 222.28 133.483 220.669 133.859C219.059 134.227 217.465 134.099 215.878 133.459C214.292 132.827 212.936 131.644 211.796 129.925C210.664 128.206 210.09 125.943 210.09 123.136C210.09 119.85 210.84 117.196 212.346 115.157C213.853 113.118 216.269 112.094 219.593 112.094C222.128 112.094 224.48 112.782 226.641 114.157C228.809 115.533 229.885 118.075 229.885 121.785V132.987C229.885 136.697 228.801 139.224 226.641 140.575C224.48 141.926 222.128 142.598 219.593 142.598C214.738 142.598 211.725 140.319 210.561 135.77H216.341C216.763 136.513 217.409 137.081 218.278 137.473C219.147 137.873 220.016 137.977 220.893 137.793C221.762 137.609 222.559 137.089 223.268 136.241C223.978 135.394 224.392 134.123 224.496 132.428M215.472 123.296C215.472 126.95 216.524 128.973 218.637 129.373C220.749 129.773 222.304 129.277 223.308 127.902C223.787 127.318 224.129 126.407 224.337 125.159C224.552 123.912 224.56 122.681 224.377 121.465C224.193 120.25 223.755 119.163 223.069 118.211C222.383 117.26 221.379 116.78 220.064 116.78C218.27 116.78 217.058 117.444 216.42 118.763C215.782 120.09 215.472 121.593 215.472 123.288" fill="#595A5C"></path>
  <path d="M248.63 127.225H252.605C252.021 129.454 250.909 131.154 249.27 132.325C247.63 133.543 245.558 134.161 243.07 134.161C240.054 134.161 237.694 133.175 235.999 131.21C234.303 129.302 233.455 126.568 233.455 123.007C233.455 119.447 234.279 116.953 235.919 115.045C237.615 113.081 239.974 112.094 242.99 112.094C246.166 112.094 248.63 113.049 250.382 114.965C252.077 116.929 252.925 119.664 252.925 123.168V124.042C252.925 124.306 252.901 124.491 252.845 124.603H239.094C239.15 126.247 239.542 127.474 240.286 128.267C240.974 129.117 242.006 129.542 243.39 129.542C244.286 129.542 245.062 129.358 245.694 128.981C245.854 128.925 245.998 128.837 246.134 128.7C246.262 128.564 246.414 128.42 246.574 128.259C246.63 128.099 246.83 127.891 247.166 127.626C247.51 127.361 247.998 127.225 248.638 127.225M239.102 121.011H247.206C247.102 119.575 246.726 118.517 246.094 117.827C245.406 117.082 244.422 116.713 243.15 116.713C241.982 116.713 241.03 117.082 240.286 117.827C239.542 118.573 239.15 119.632 239.094 121.011" fill="#595A5C"></path>
  <path d="M274.976 133.82H272.234C271.453 133.82 270.815 133.571 270.319 133.064C269.822 132.557 269.578 131.906 269.578 131.11V120.243C269.578 118.964 269.2 118.031 268.443 117.443C267.687 116.856 266.835 116.567 265.898 116.567C264.96 116.567 264.125 116.856 263.392 117.443C262.659 118.031 262.296 118.964 262.296 120.243V133.828H256.819V121.361C256.819 117.741 257.749 115.312 259.601 114.089C261.453 112.867 263.502 112.199 265.748 112.094C268.041 112.094 270.161 112.706 272.092 113.936C274.022 115.159 274.992 117.636 274.992 121.369V133.836L274.976 133.82Z" fill="#595A5C"></path>
  <path d="M293.8 127.225H297.707C297.134 129.454 296.041 131.154 294.429 132.325C292.817 133.543 290.789 134.161 288.336 134.161C285.372 134.161 283.053 133.175 281.386 131.21C279.719 129.294 278.886 126.559 278.886 123.007C278.886 119.455 279.696 116.953 281.307 115.045C282.974 113.081 285.293 112.094 288.257 112.094C291.379 112.094 293.8 113.049 295.522 114.965C296.457 116.136 297.134 117.491 297.55 119.03H292.086C291.827 118.501 291.567 118.1 291.308 117.836C290.632 117.09 289.665 116.721 288.415 116.721C287.267 116.721 286.331 117.09 285.6 117.836C284.665 118.902 284.193 120.65 284.193 123.096C284.193 125.541 284.665 127.265 285.6 128.275C286.276 129.125 287.29 129.55 288.643 129.55C289.531 129.55 290.286 129.366 290.907 128.989C291.064 128.933 291.206 128.845 291.339 128.708C291.473 128.572 291.614 128.428 291.772 128.267C291.874 128.107 292.086 127.899 292.393 127.626C292.707 127.361 293.171 127.225 293.8 127.225Z" fill="#595A5C"></path>
  <path d="M316.38 127.225H320.422C319.828 129.454 318.698 131.154 317.031 132.325C315.364 133.543 313.257 134.161 310.728 134.161C307.662 134.161 305.263 133.175 303.539 131.21C301.814 129.302 300.952 126.568 300.952 123.007C300.952 119.447 301.79 116.953 303.457 115.045C305.181 113.081 307.581 112.094 310.647 112.094C313.875 112.094 316.38 113.049 318.161 114.965C319.885 116.929 320.747 119.664 320.747 123.168V124.042C320.747 124.306 320.723 124.491 320.666 124.603H306.686C306.743 126.247 307.141 127.474 307.898 128.267C308.597 129.117 309.646 129.542 311.053 129.542C311.964 129.542 312.753 129.358 313.395 128.981C313.558 128.925 313.704 128.837 313.843 128.7C313.973 128.564 314.127 128.42 314.29 128.259C314.347 128.099 314.55 127.891 314.892 127.626C315.242 127.361 315.738 127.225 316.388 127.225M306.694 121.011H314.932C314.827 119.575 314.445 118.517 313.802 117.827C313.103 117.082 312.102 116.713 310.809 116.713C309.622 116.713 308.654 117.082 307.898 117.827C307.141 118.573 306.743 119.632 306.686 121.011" fill="#595A5C"></path>
  <path d="M117.694 168.546V178.294H112.089V153.883C112.089 153.093 112.367 152.415 112.916 151.865C113.472 151.307 114.14 151.035 114.927 151.035H124.167C127.061 151.035 129.224 151.777 130.647 153.253C132.118 154.729 132.857 156.923 132.857 159.826C132.857 162.571 132.15 164.74 130.726 166.328C129.303 167.804 127.252 168.546 124.564 168.546H117.694ZM117.694 163.632H123.141C124.62 163.632 125.669 163.312 126.298 162.682C126.981 162.1 127.323 161.095 127.323 159.667C127.323 158.454 127.005 157.473 126.377 156.731C125.638 156.101 124.668 155.782 123.451 155.782H117.686V163.624L117.694 163.632Z" fill="#595A5C"></path>
  <path d="M150.386 177.363C149.276 177.939 148.102 178.295 146.856 178.421C145.611 178.555 144.516 178.618 143.566 178.618C141.666 178.618 139.997 178.105 138.567 177.086C137.138 176.068 136.427 174.377 136.427 172.024C136.427 169.828 137.074 168.257 138.368 167.317C139.661 166.377 141.314 165.745 143.327 165.437C143.59 165.437 143.91 165.398 144.277 165.319C144.644 165.24 145.067 165.177 145.547 165.122C147.87 164.806 149.036 164.126 149.036 163.084C149.036 162.302 148.629 161.789 147.807 161.552C146.984 161.315 146.233 161.196 145.547 161.196C144.804 161.196 144.141 161.299 143.566 161.512C142.983 161.726 142.56 162.113 142.296 162.689H136.978C137.186 161.07 137.928 159.735 139.198 158.685C140.627 157.485 142.664 156.876 145.307 156.876C148.27 156.876 150.49 157.374 151.975 158.369C153.508 159.412 154.275 160.881 154.275 162.76V169.9C154.275 171.992 153.892 173.627 153.125 174.804C152.358 175.981 151.448 176.834 150.386 177.355M149.116 167.704C148.374 168.067 147.343 168.407 146.018 168.723L144.197 169.118C143.247 169.378 142.56 169.718 142.137 170.136C141.769 170.713 141.578 171.29 141.578 171.866C141.578 172.648 141.817 173.28 142.288 173.746C142.768 174.164 143.454 174.37 144.349 174.37C145.826 174.37 146.992 173.951 147.838 173.114C148.685 172.277 149.108 171.124 149.108 169.663V167.704H149.116Z" fill="#595A5C"></path>
  <path d="M158.169 178.294V168.067C158.169 166.007 158.475 164.275 159.088 162.869C159.7 161.464 160.538 160.347 161.61 159.5C162.625 158.71 163.81 158.127 165.172 157.76C166.534 157.393 167.936 157.201 169.378 157.201H170.176V162.829H168.339C166.791 162.829 165.647 163.197 164.898 163.939C164.148 164.682 163.778 165.839 163.778 167.428V178.294H158.177H158.169Z" fill="#595A5C"></path>
  <path d="M183.14 178.231C181.386 178.335 179.496 178.311 177.454 178.152C175.412 177.993 174.394 176.704 174.394 174.277V151.035H177.262C177.95 151.035 178.559 151.298 179.096 151.823C179.624 152.348 179.888 152.985 179.888 153.725V157.281H183.148V158.387C183.148 159.175 182.884 159.827 182.355 160.321C181.827 160.822 181.186 161.069 180.449 161.069H179.888V172.765C179.888 173.656 180.417 174.11 181.482 174.11H183.156V178.223L183.14 178.231Z" fill="#595A5C"></path>
  <path d="M204.882 178.278H202.14C201.36 178.278 200.721 178.033 200.225 177.533C199.729 177.034 199.484 176.392 199.484 175.608V164.903C199.484 163.643 199.106 162.724 198.349 162.146C197.593 161.567 196.742 161.282 195.804 161.282C194.866 161.282 194.031 161.567 193.298 162.146C192.565 162.724 192.203 163.643 192.203 164.903V178.286H186.726V166.004C186.726 162.439 187.656 160.046 189.508 158.842C191.359 157.637 193.408 156.979 195.654 156.876C197.948 156.876 200.067 157.479 201.998 158.691C203.929 159.895 204.898 162.336 204.898 166.012V178.294L204.882 178.278Z" fill="#595A5C"></path>
  <path d="M223.643 171.785H227.618C227.034 173.981 225.922 175.656 224.283 176.809C222.643 178.01 220.571 178.618 218.083 178.618C215.067 178.618 212.707 177.647 211.012 175.711C209.316 173.831 208.468 171.137 208.468 167.629C208.468 164.121 209.292 161.664 210.932 159.784C212.627 157.848 214.987 156.876 218.003 156.876C221.179 156.876 223.643 157.817 225.394 159.705C227.09 161.64 227.938 164.334 227.938 167.787V168.648C227.938 168.909 227.914 169.091 227.858 169.201H214.107C214.163 170.821 214.555 172.03 215.299 172.812C215.987 173.649 217.019 174.068 218.403 174.068C219.299 174.068 220.075 173.886 220.707 173.515C220.867 173.459 221.011 173.373 221.147 173.238C221.275 173.104 221.427 172.962 221.587 172.804C221.643 172.646 221.843 172.44 222.179 172.18C222.523 171.919 223.011 171.785 223.651 171.785M214.115 165.662H222.219C222.115 164.248 221.739 163.205 221.107 162.525C220.419 161.791 219.435 161.427 218.163 161.427C216.995 161.427 216.043 161.791 215.299 162.525C214.555 163.26 214.163 164.303 214.107 165.662" fill="#595A5C"></path>
  <path d="M231.832 178.294V168.067C231.832 166.007 232.139 164.275 232.751 162.869C233.363 161.464 234.201 160.347 235.273 159.5C236.288 158.71 237.473 158.127 238.835 157.76C240.197 157.393 241.599 157.201 243.041 157.201H243.839V162.829H242.002C240.455 162.829 239.31 163.197 238.561 163.939C237.812 164.682 237.441 165.839 237.441 167.428V178.294H231.84H231.832Z" fill="#595A5C"></path>
  <path d="M247.084 171.319H252.411C252.466 172.368 252.853 173.149 253.587 173.67C254.368 174.191 255.417 174.452 256.719 174.452C257.658 174.452 258.471 174.27 259.15 173.899C259.781 173.536 260.089 173.039 260.089 172.408C260.089 171.468 258.992 170.758 256.798 170.293C255.859 170.135 255.149 169.977 254.683 169.819C251.914 169.14 250.059 168.328 249.12 167.388C248.079 166.449 247.55 165.194 247.55 163.624C247.55 161.635 248.307 159.994 249.822 158.684C251.393 157.484 253.429 156.876 255.938 156.876C258.653 156.876 260.823 157.476 262.44 158.684C263.956 159.994 264.768 161.69 264.871 163.782H261.501C260.507 163.782 259.75 163.34 259.229 162.448C259.024 162.243 258.811 162.03 258.605 161.825C257.982 161.351 257.114 161.122 256.017 161.122C254.92 161.122 254.186 161.28 253.665 161.596C253.192 161.911 252.963 162.377 252.963 163.008C252.963 163.845 254.32 164.547 257.043 165.123C257.359 165.226 257.635 165.305 257.864 165.36C258.1 165.415 258.321 165.439 258.526 165.439C261.194 166.118 263.048 166.899 264.09 167.791C265.084 168.73 265.581 169.985 265.581 171.555C265.581 173.86 264.745 175.635 263.072 176.89C261.501 178.042 259.15 178.618 256.017 178.618C252.884 178.618 250.817 178.019 249.357 176.811C247.842 175.612 247.084 173.86 247.084 171.555V171.319Z" fill="#595A5C"></path>
  <path d="M282.909 163.157C282.127 162.049 281.052 161.491 279.693 161.491C278.231 161.491 277.101 162.017 276.319 163.078C275.537 164.138 275.141 165.59 275.141 167.432V178.286H269.8V151.035H272.471C273.205 151.035 273.83 151.298 274.351 151.825C274.873 152.351 275.134 152.989 275.134 153.723V159.983C276.074 158.396 277.409 157.399 279.14 156.977C280.87 156.554 282.514 156.658 284.086 157.296C285.548 157.926 286.781 158.931 287.777 160.31C288.772 161.682 289.27 163.588 289.27 166.012V178.294H284.015V167.36C284.015 166.571 283.952 165.845 283.818 165.183C283.683 164.521 283.383 163.851 282.917 163.165" fill="#595A5C"></path>
  <path d="M293.813 151.035H296.488C297.183 151.035 297.773 151.299 298.266 151.825C298.759 152.352 299.005 152.99 299.005 153.732V155.399H293.813V151.043V151.035ZM293.813 157.218H296.488C297.183 157.218 297.773 157.481 298.266 158.007C298.759 158.534 299.005 159.172 299.005 159.906V178.294H293.813V157.21V157.218Z" fill="#595A5C"></path>
  <path d="M307.935 183.405C307.935 184.144 307.673 184.771 307.149 185.296C306.624 185.82 305.989 186.082 305.259 186.082H302.575V166.426C302.575 162.74 303.655 160.229 305.807 158.887C307.958 157.544 310.301 156.876 312.826 156.876C314.144 156.876 315.47 157.131 316.812 157.623C318.154 158.116 319.218 158.847 320.004 159.792C321.584 161.842 322.37 164.472 322.37 167.682C322.37 170.891 321.584 173.68 320.004 175.73C318.424 177.732 316.399 178.725 313.929 178.725C312.611 178.725 311.46 178.487 310.46 178.018C309.411 177.494 308.57 176.675 307.935 175.571V183.381V183.405ZM316.931 167.936C316.931 165.886 316.534 164.305 315.748 163.201C314.962 162.096 313.826 161.54 312.357 161.54C310.888 161.54 309.832 162.096 309.046 163.201C308.308 164.202 307.943 165.775 307.943 167.936C307.943 169.938 308.34 171.432 309.126 172.433C309.912 173.537 311.047 174.093 312.516 174.093C313.882 174.093 314.962 173.537 315.748 172.433C316.534 171.328 316.931 169.827 316.931 167.936Z" fill="#595A5C"></path>
  <path d="M72.3806 50.9367C69.0722 48.3774 66.074 45.8978 62.9087 43.6494C56.9838 39.4476 50.534 36.5056 43.2015 35.7641C24.9735 33.9144 12.0818 51.3513 19.3428 68.23C23.6851 78.3238 32.0595 83.8411 41.9608 87.4448C43.4957 88.0029 45.0545 88.4734 46.5417 89.2148C38.0401 88.7205 29.5941 88.0189 21.7684 84.2636C16.2014 81.6007 11.0559 78.4274 7.15897 73.4124C-5.81219 56.6613 -0.149736 29.5373 18.6191 19.7943C34.4772 11.5662 49.8183 13.8863 64.6663 22.7523C65.398 23.1908 66.1058 23.6771 66.7102 24.0678C69.3744 20.5438 71.6728 16.9878 74.4882 13.9023C82.0673 5.59447 91.6028 1.09773 102.8 0.276514C113.815 -0.528755 123.836 2.1661 132.314 9.43744C141.205 17.0596 144.943 27.0338 144.505 38.5866C143.957 53.209 138.008 65.9737 129.983 77.7577C124.886 85.2363 118.889 92.109 113.29 99.2448C113.06 99.5398 112.726 99.7551 112.145 99.7631C114.507 96.4543 116.957 93.2093 119.207 89.8208C126.198 79.3045 131.757 68.1742 133.387 55.4334C134.191 49.1746 133.904 42.9637 131.494 37.0717C126.166 24.0598 113.553 18.6701 100.279 23.6373C90.7359 27.2092 83.7692 33.9543 78.0351 42.1266C76.0787 44.9171 74.345 47.8591 72.3806 50.9287" fill="#E2266B"></path>
  <path d="M53.3531 170.844C54.0061 168.911 54.7387 167.009 55.2881 165.052C59.5961 149.68 57.0957 135.064 50.0246 121.1C42.842 106.929 32.323 95.7344 18.7939 87.372C18.4674 87.1731 18.1569 86.9344 17.9817 86.282C18.7859 86.5525 19.5902 86.8389 20.4024 87.1015C21.3102 87.3959 22.2259 87.6744 23.1337 87.9767C32.8087 91.1832 42.7146 93.1246 52.9311 92.6074C75.3787 91.4776 91.8461 80.9988 101.887 60.7573C105.869 52.7291 107.868 44.1837 108.497 35.2803C108.528 34.8268 108.608 34.3812 108.99 33.8879C109.134 34.3892 109.365 34.8746 109.412 35.3838C110.575 47.3505 111.3 59.349 110.36 71.3475C108.775 91.6129 102.031 110.104 90.7233 126.996C81.8366 140.275 71.2698 152.162 60.5198 163.914C58.2981 166.341 56.0367 168.744 53.7991 171.155C53.6478 171.051 53.4965 170.948 53.3452 170.844" fill="#502C78"></path>
  <path d="M67.5736 59.1996C75.4998 59.2156 81.5691 65.2928 81.5852 73.2355C81.6013 81.1942 75.3069 87.4795 67.3887 87.4315C59.5831 87.3834 53.345 81.0981 53.353 73.2915C53.353 65.2527 59.4786 59.1836 67.5736 59.1996Z" fill="#502C78"></path>
</svg>
